# xmcd
#
# Track frame offsets: 
#        150
#        36527
#        50630
#        63917
#        75237
#        92935
#        105712
#        117992
#        132235
#        160095
#        172967
#        186465
#        200285
#        219287
#        231085
#        251330
#        274455
#        290652
#        310480
#        326437
#
# Disc length: 4493 seconds
#
# Revision: 2
# Processed by: cddbd v1.5.2PL0 Copyright (c) Steve Scherf et al.
# Submitted via: ExactAudioCopyFreeDBPlugin 1.0
#
DISCID=26118b14
DTITLE=Various Artist - Invictus Soul Box Set (Limited Edition 3-CD)
DYEAR=2006
DGENRE=Soul
TTITLE0=Ruth Copeland - Gimme Shelter
TTITLE1=The Chairmen of the Board - Life and Death (Pt 1)
TTITLE2=Parliament - Come in Out of the Rain
TTITLE3=Freda Payne - The Unhooked Generation
TTITLE4=Natural High - Bump Your Lady (Pts 1 and 2)
TTITLE5=The Politicians - Free Your Mind
TTITLE6=Raynel Winglas - Bar-B-Q-Ribs
TTITLE7=Harrison Kennedy - Sunday Morning People
TTITLE8=Lucifer - Time Gonna Change Everything
TTITLE9=Lee Charles - Sittin' on a Time Bomb (Waiting for the Hurt to 
TTITLE9=Come)
TTITLE10=Laura Lee - I Need It Just as Bad as You
TTITLE11=Flaming Ember - Stop the World and Let Me Off
TTITLE12=The Chairmen of the Board - Hanging On (To) a Memory
TTITLE13=Smith Connection - I'm Bugging Your Phone (Pt 1)
TTITLE14=The 8th Day - Cheba
TTITLE15=Freda Payne - Mother Misery's Favorite Child
TTITLE16=The Chairmen of the Board - Chairman of the Board
TTITLE17=Parliament - I Call My Baby Pussycat
TTITLE18=New York Port Authority - I Got It (Pt 1)
TTITLE19=The Just Brothers - Sliced Tomatoes
EXTD=\n
EXTT0=
EXTT1=
EXTT2=
EXTT3=
EXTT4=
EXTT5=
EXTT6=
EXTT7=
EXTT8=
EXTT9=
EXTT10=
EXTT11=
EXTT12=
EXTT13=
EXTT14=
EXTT15=
EXTT16=
EXTT17=
EXTT18=
EXTT19=
PLAYORDER=
